<?xml version="1.0" ?><svg id="Layer_1" style="enable-background:new 0 0 64 64;" version="1.1" viewBox="0 0 64 64" xml:space="preserve" xmlns="http://www.w3.org/2000/svg" xmlns:xlink="http://www.w3.org/1999/xlink"><g><rect height="2" width="21.87109" x="11.8573" y="24.16656"/><rect height="2" width="21.87109" x="11.8573" y="33.69098"/><rect height="2" width="21.87109" x="11.8573" y="44.26813"/><path d="M45.24304,32.22607V9.64215c0-1.1084-0.90137-2.01074-2.00977-2.01074h-9.89374V5.34204h-5.16998V5.29199   c0-3.00995-2.54999-5.5-5.70001-5.27997c-2.66998,0.20001-4.77997,2.52002-4.87,5.33002h-5.22998c0,0,0,0.98346,0,2.28937H2.52332   c-1.11426,0-2.02051,0.90234-2.02051,2.01074v52.34961c0,1.1084,0.90625,2.00977,2.02051,2.00977c12.74314,0,48.22535,0,60.97388,0   V32.22607H45.24304z M22.86957,4.04199c0.71002,0,1.28998,0.57001,1.28998,1.28003S23.57959,6.612,22.86957,6.612   c-0.70001,0-1.28003-0.57996-1.28003-1.28998S22.16956,4.04199,22.86957,4.04199z M36.13599,58.24036L6.64832,58.22614   l0.0166-44.83105l5.70465-0.00061c0,0.50214,0,0.82629,0,0.85754h20.96997v-0.85974l1.05389-0.00012l4.70996,0.00781   l-0.03021,18.82611h-2.93719V58.24036z M40.53784,35.94775h18.55334v5.93774H40.53784V35.94775z M43.23328,9.63141   l0.00421,22.59467h-2.16425c0.00836-5.22845,0.01831-11.427,0.03015-18.82416c0-1.1084-0.90137-2.00977-2.00977-2.00977   l-5.75409,0.00055V9.63141H43.23328z M2.50281,61.99176L2.52332,9.63141h9.84625c0,0.59875,0,1.19965,0,1.76318l-5.70465,0.00049   c-1.1123,0-2.0166,0.90039-2.0166,2.00684v44.82422c0,1.1123,0.9043,2.0166,2.0166,2.0166h29.47107v1.75714L2.50281,61.99176z    M41.91681,60.97296c-1.10461,0-2-0.89545-2-2c0-1.10461,0.89539-2,2-2c1.10455,0,2,0.89539,2,2   C43.91681,60.07751,43.02136,60.97296,41.91681,60.97296z M41.91681,54.80585c-1.10461,0-2-0.89545-2-2c0-1.10461,0.89539-2,2-2   c1.10455,0,2,0.89539,2,2C43.91681,53.9104,43.02136,54.80585,41.91681,54.80585z M41.91681,48.63873c-1.10461,0-2-0.89545-2-2   c0-1.10461,0.89539-2,2-2c1.10455,0,2,0.89539,2,2C43.91681,47.74329,43.02136,48.63873,41.91681,48.63873z M49.81659,60.97296   c-1.10455,0-2-0.89545-2-2c0-1.10461,0.89545-2,2-2s2,0.89539,2,2C51.81659,60.07751,50.92114,60.97296,49.81659,60.97296z    M49.81659,54.80585c-1.10455,0-2-0.89545-2-2c0-1.10461,0.89545-2,2-2s2,0.89539,2,2   C51.81659,53.9104,50.92114,54.80585,49.81659,54.80585z M49.81659,48.63873c-1.10455,0-2-0.89545-2-2c0-1.10461,0.89545-2,2-2   s2,0.89539,2,2C51.81659,47.74329,50.92114,48.63873,49.81659,48.63873z M57.71637,60.97296c-1.10455,0-2-0.89545-2-2   c0-1.10461,0.89545-2,2-2c1.10461,0,2,0.89539,2,2C59.71637,60.07751,58.82098,60.97296,57.71637,60.97296z M57.71637,54.80585   c-1.10455,0-2-0.89545-2-2c0-1.10461,0.89545-2,2-2c1.10461,0,2,0.89539,2,2C59.71637,53.9104,58.82098,54.80585,57.71637,54.80585   z M57.71637,48.63873c-1.10455,0-2-0.89545-2-2c0-1.10461,0.89545-2,2-2c1.10461,0,2,0.89539,2,2   C59.71637,47.74329,58.82098,48.63873,57.71637,48.63873z"/></g></svg>